<?xml version="1.0" encoding="UTF-8"?>
<svg id="Layer_2" data-name="Layer 2" xmlns="http://www.w3.org/2000/svg" viewBox="0 0 2237.22 2227.62">
  <g id="Layer_1-2" data-name="Layer 1">
    <g>
      <path d="M1880.83,979.17c-19.49-43.97-1-82.37,2.83-91.05,9.01,2.99,49.88,15.08,69.37,59.05,19.49,43.97,3.63,88.3-.2,96.99-9.01-2.99-52.51-21.02-72-64.98Z" fill="#5cb948"/>
      <g>
        <path d="M426.18,2178.44c-9.2-32.68,6.07-58.7,8.65-62.93,4.4,2.26,31,16.5,40.2,49.18,9.2,32.68-6.07,58.7-8.65,62.93-4.4-2.26-31-16.5-40.2-49.18Z" fill="#f26630"/>
        <path d="M503.54,2115.32c32.9-8.37,47.8-34.61,50.17-38.95-4.16-2.68-29.79-18.6-62.69-10.23-32.9,8.37-47.8,34.61-50.17,38.95,4.16,2.68,29.79,18.6,62.69,10.23Z" fill="#f26630"/>
      </g>
      <g>
        <path d="M1680.89,9.28c29.92,16.05,38.07,45.09,39.33,49.88-4.68,1.6-33.39,10.89-63.31-5.16-29.92-16.05-38.07-45.09-39.33-49.88,4.68-1.6,33.39-10.89,63.31,5.16Z" fill="#f26630"/>
        <path d="M1672.69,108.79c-16.79,29.51-8.23,58.44-6.75,63.16,4.82-1.14,34.06-8.55,50.86-38.06,16.79-29.51,8.23-58.44,6.75-63.16-4.82,1.14-34.06,8.55-50.86,38.06Z" fill="#f26630"/>
      </g>
      <g opacity=".8">
        <path d="M1728.38,68.11c106.72-28.77,225.29-31.83,323.19,26.04,79.88,47.23,132.88,128.11,157.73,216.29,25.75,91.36,23.53,190.64-4.11,281.29-27.8,91.2-83.3,174.93-164.05,227.3-95.92,62.21-213.66,70.76-323.52,48.11-53.64-11.06-106.74-25.17-160.15-37.31-55.69-12.66-111.5-24.77-167.52-35.86-97.34-19.25-195.44-35.54-294.31-44.54-175.02-15.94-351.9-5.57-519.34,50.79-87.65,29.51-172.41,69.77-250.96,118.58s-153.41,114.88-209.48,192.28C23.13,1239.1-22.55,1403.78,10.96,1560.2c7.86,36.67,20.88,70.96,35.95,105.18,19.81,45,42.12,88.94,67.42,131.11,51.2,85.36,114.95,163.23,191.02,227.62,38.74,32.78,80.38,61.96,124.18,87.56,5.57,3.25,10.61-5.39,5.05-8.63-90.94-53.14-171.33-122.26-237.3-204.4-62.14-77.37-109.33-164.3-149.1-254.89-63.57-144.8-43.57-314.75,29.23-452.15,43.26-81.63,104.6-152.66,176.58-210.31,76.3-61.11,165.35-108.31,255.53-145.45,80.43-33.12,164.58-56.77,250.56-69.99,87.27-13.41,175.92-16.01,264.01-11.53,212.6,10.81,422.3,58.99,628.76,107.96,68.51,16.25,136.07,30.42,206.92,25.55,52.37-3.6,103.96-16.5,151.02-39.96,86.24-43,150.6-119.42,187.48-207.58,36.88-88.16,47.61-187.28,32.01-281.47-15-90.56-56.38-178.94-126.73-239.54-78.82-67.91-183.37-89.79-285.1-78.65-31.35,3.43-62.31,9.62-92.74,17.83-6.21,1.67-3.57,11.32,2.66,9.64h0Z" fill="#add9bf"/>
      </g>
      <path d="M977.34,641.04c13.98-51.42,56.72-71.51,66.09-76.29,5.66,8.87,32.34,47.83,18.35,99.25-13.98,51.42-58.61,78.45-67.98,83.24-5.66-8.87-30.45-54.77-16.47-106.2Z" fill="#5cb948"/>
    </g>
  </g>
</svg>