<?xml version="1.0" encoding="UTF-8"?>
<svg id="Layer_2" data-name="Layer 2" xmlns="http://www.w3.org/2000/svg" viewBox="0 0 3019.32 2227.62">
  <g id="Layer_1-2" data-name="Layer 1">
    <g>
      <path d="M2388.11,979.17c-19.49-43.97-1-82.37,2.83-91.05,9.01,2.99,49.88,15.08,69.37,59.05,19.49,43.97,3.63,88.3-.2,96.99-9.01-2.99-52.51-21.02-72-64.98Z" fill="#5cb948"/>
      <g>
        <path d="M933.47,2178.44c-9.2-32.68,6.07-58.7,8.65-62.93,4.4,2.26,31,16.5,40.2,49.18,9.2,32.68-6.07,58.7-8.65,62.93-4.4-2.26-31-16.5-40.2-49.18Z" fill="#f26630"/>
        <path d="M1010.83,2115.32c32.9-8.37,47.8-34.61,50.17-38.95-4.16-2.68-29.79-18.6-62.69-10.23-32.9,8.37-47.8,34.61-50.17,38.95,4.16,2.68,29.79,18.6,62.69,10.23Z" fill="#f26630"/>
      </g>
      <g>
        <path d="M2188.18,9.28c29.92,16.05,38.07,45.09,39.33,49.88-4.68,1.6-33.39,10.89-63.31-5.16-29.92-16.05-38.07-45.09-39.33-49.88,4.68-1.6,33.39-10.89,63.31,5.16Z" fill="#f26630"/>
        <path d="M2179.98,108.79c-16.79,29.51-8.23,58.44-6.75,63.16,4.82-1.14,34.06-8.55,50.86-38.06,16.79-29.51,8.23-58.44,6.75-63.16-4.82,1.14-34.06,8.55-50.86,38.06Z" fill="#f26630"/>
      </g>
      <g opacity=".8">
        <path d="M2235.66,68.11c91.06-25.61,185.5-41.11,280.3-38.78,75.24,1.85,150.58,15.24,220.35,43.98,58.84,24.24,113.2,59.71,157.61,105.42,40.09,41.26,71.82,90.72,91.58,144.82,18.94,51.86,26.94,107.41,22.81,162.49-4.18,55.73-21.07,110.27-48.83,158.75-30.33,52.96-73.17,98.04-123.05,133-60.54,42.42-130.23,70.08-202.03,86.59-91.74,21.09-186.98,24.37-280.6,17.51-59.41-4.36-117.99-13.65-176.55-24.28-69.6-12.64-139.22-25.12-208.93-37.11-145.43-25.02-291.26-47.99-437.73-66.06s-291.26-31.2-437.61-34.94c-132.7-3.39-266.25,.81-397.58,21.29-119.4,18.63-234.64,52.58-341.4,109.82-106.74,57.23-204.53,135.17-268.5,239.37C30.21,1180.08,4.71,1284.15,.7,1389.14c-3.34,87.42,4.91,176.37,32.16,259.82,24.74,75.75,64.68,146.01,117.7,205.55,61.93,69.55,140.22,122.91,224.75,161.25,108.46,49.2,226.25,75.01,344.29,87.48,72.97,7.71,146.4,10.18,219.75,9.11,6.43-.09,6.45-10.09,0-10-139.9,2.04-281.39-8.44-416.9-44.94-100.14-26.97-197.29-68.79-280.2-131.82-67.81-51.55-124.32-117.24-163.59-192.92-36.05-69.48-57.13-146.24-64.54-224.05-10.01-105.07-3.49-213.98,32.27-313.94,38.79-108.42,112.63-199.04,204.53-267.32,101.35-75.31,218.84-126.85,341.31-156.19,125.38-30.04,254.98-40.52,383.63-42.38,143.75-2.08,287.55,7.08,430.51,21.64,149.02,15.17,297.36,36.49,445.18,60.58,71.96,11.73,143.81,24.15,215.59,36.92,64.91,11.55,129.67,24.82,194.96,34.04,100.3,14.16,202.63,18.47,303.25,4.98,76.92-10.31,152.97-31.25,221.87-67.48,56.74-29.84,108.25-70.33,147.95-120.87,35.16-44.75,60.79-96.71,73.87-152.16,12.64-53.58,13.57-109.56,3.25-163.6-10.53-55.14-32.92-107.95-64.66-154.22-34.12-49.75-78.67-91.79-129.52-124.14-58.22-37.04-124.16-61.11-191.84-73.76-82.55-15.43-167.35-14.4-250.3-2.73-48.3,6.79-96,17.3-142.94,30.5-6.19,1.74-3.56,11.39,2.66,9.64h0Z" fill="#add9bf"/>
      </g>
      <path d="M1484.63,641.04c13.98-51.42,56.72-71.51,66.09-76.29,5.66,8.87,32.34,47.83,18.35,99.25-13.98,51.42-58.61,78.45-67.98,83.24-5.66-8.87-30.45-54.77-16.47-106.2Z" fill="#5cb948"/>
    </g>
  </g>
</svg>