<?xml version="1.0" encoding="UTF-8"?>
<svg id="Layer_2" data-name="Layer 2" xmlns="http://www.w3.org/2000/svg" viewBox="0 0 2002.4 660.56">
  <g id="Layer_1-2" data-name="Layer 1">
    <g>
      <g>
        <path d="M1999.9,327.5v330.42H2.51V164.75h-.02c154.9,76.25,409.7,196.29,757.66,107.5,421.29-107.5,851.48-181.87,1239.74,55.25Z" fill="#5cb948"/>
        <path d="M1997.4,327.5v330.42l2.5-2.5h-962.75c-97.02,0-194.05,0-291.07,0-89.85,0-179.7,0-269.54,0H32.62c-8.63,0-18.14-1.14-26.71,0-1.09,.14-2.29,0-3.4,0l2.5,2.5V164.75c0-1.35-1.15-2.5-2.5-2.5h-.02c-2.37,0-3.55,3.53-1.26,4.66,87.32,42.97,176.36,82.12,270.71,107.02,125.95,33.23,257.34,40.77,386.22,21.52,75.34-11.25,148.65-32.94,222.73-50.24,71.72-16.76,143.85-31.88,216.52-43.97,142.94-23.78,288.79-35.86,433.48-22.92,146.21,13.07,289.21,53.25,418.6,123.1,16.63,8.98,33,18.43,49.15,28.25,2.76,1.68,5.27-2.65,2.52-4.32-124.58-75.79-263.31-124.45-407.63-144.82-139.96-19.75-282.21-14.24-421.95,4.52-72.64,9.75-144.76,23.02-216.41,38.37-73.14,15.68-145.33,34.99-218.16,51.9-136.78,31.76-278.96,34.32-416.39,5.07-101.14-21.52-197.1-59.72-289.92-104.63-9-4.35-17.97-8.75-26.94-13.17l-1.26,4.66h.02L.01,164.75v493.18c0,1.35,1.15,2.5,2.5,2.5H1918.82c25.89,0,51.8,.29,77.68,0,1.13-.01,2.26,0,3.4,0,1.35,0,2.5-1.15,2.5-2.5V327.5c0-3.22-5-3.22-5,0Z" fill="#add9bf"/>
      </g>
      <path d="M606.82,224.54c-28.99,56.35-82.95,72.49-91.85,74.98-3.14-8.69-21.38-61.97,7.61-118.32,28.99-56.35,82.95-72.49,91.85-74.98,3.14,8.69,21.38,61.97-7.61,118.32Z" fill="#5cb948"/>
      <path d="M1746.57,118.32c-28.99,56.35-82.95,72.49-91.85,74.98-3.14-8.69-21.38-61.97,7.61-118.32,28.99-56.35,82.95-72.49,91.85-74.98,3.14,8.69,21.38,61.97-7.61,118.32Z" fill="#5cb948"/>
      <path d="M1131.34,257.57c46.1,43.48,46.64,99.8,46.58,109.04-9.22,.61-65.47,3.36-111.57-40.12-46.1-43.48-46.64-99.8-46.58-109.04,9.22-.61,65.47-3.36,111.57,40.12Z" fill="#f26630"/>
    </g>
  </g>
</svg>