<?xml version="1.0" encoding="UTF-8"?>
<svg id="Layer_1" data-name="Layer 1" xmlns="http://www.w3.org/2000/svg" xmlns:xlink="http://www.w3.org/1999/xlink" viewBox="0 0 399.94 523.81">
  <defs>
    <style>
      .cls-1 {
        letter-spacing: 0em;
      }

      .cls-2 {
        fill: url(#linear-gradient-2);
      }

      .cls-3 {
        fill: #231f20;
        font-family: AcuminConcept-SemiCondBold, 'Acumin Variable Concept';
        font-size: 19.76px;
        font-variation-settings: 'wght' 700, 'wdth' 90, 'slnt' 0;
        font-weight: 700;
      }

      .cls-4 {
        fill: #fff;
      }

      .cls-5 {
        letter-spacing: 0em;
      }

      .cls-6 {
        letter-spacing: 0em;
      }

      .cls-7 {
        letter-spacing: 0em;
      }

      .cls-8 {
        letter-spacing: 0em;
      }

      .cls-9 {
        fill: #008c44;
      }

      .cls-10 {
        fill: #f15a22;
      }

      .cls-11 {
        letter-spacing: 0em;
      }

      .cls-12 {
        letter-spacing: 0em;
      }

      .cls-13 {
        letter-spacing: 0em;
      }

      .cls-14 {
        fill: url(#linear-gradient-3);
      }

      .cls-14, .cls-15 {
        stroke: #fff;
        stroke-miterlimit: 10;
      }

      .cls-16 {
        letter-spacing: -.01em;
      }

      .cls-17 {
        letter-spacing: -.04em;
      }

      .cls-18 {
        letter-spacing: -.01em;
      }

      .cls-19 {
        letter-spacing: .02em;
      }

      .cls-20 {
        letter-spacing: .01em;
      }

      .cls-21 {
        letter-spacing: .02em;
      }

      .cls-22 {
        letter-spacing: 0em;
      }

      .cls-23 {
        fill: url(#linear-gradient);
      }

      .cls-24 {
        letter-spacing: 0em;
      }

      .cls-15 {
        fill: url(#linear-gradient-5);
      }

      .cls-25 {
        fill: url(#linear-gradient-4);
      }

      .cls-26 {
        letter-spacing: 0em;
      }

      .cls-27 {
        letter-spacing: 0em;
      }

      .cls-28 {
        letter-spacing: 0em;
      }
    </style>
    <linearGradient id="linear-gradient" x1="256.82" y1="159.63" x2="348.46" y2="257.9" gradientUnits="userSpaceOnUse">
      <stop offset="0" stop-color="#008a43"/>
      <stop offset=".45" stop-color="#65bc46"/>
      <stop offset="1" stop-color="#008a43"/>
    </linearGradient>
    <linearGradient id="linear-gradient-2" x1="134.96" y1="141.75" x2="270.31" y2="141.75" xlink:href="#linear-gradient"/>
    <linearGradient id="linear-gradient-3" x1="201.96" y1="214.4" x2="270.31" y2="214.4" xlink:href="#linear-gradient"/>
    <linearGradient id="linear-gradient-4" x1="0" y1="207.35" x2="198.18" y2="207.35" xlink:href="#linear-gradient"/>
    <linearGradient id="linear-gradient-5" x1="134.98" y1="216.43" x2="197.98" y2="216.43" xlink:href="#linear-gradient"/>
  </defs>
  <g>
    <path class="cls-23" d="m399.79,105.37c-58.77,4.21-100.25,20.28-129.48,41.68-.23,41.68-17.41,88.36-68.35,134.71-.75,16.65.78,27.47.78,27.47,209.68,5.83,197.05-203.85,197.05-203.85Z"/>
    <path class="cls-2" d="m270.31,147.05C270.77,63.44,203.1,0,203.1,0c-52.16,56.95-68.77,108.28-68.12,151.12,50.77,40.36,61.49,97.23,63,130.62,1.32,1.15,2.09,1.76,2.09,1.76.65-.58,1.26-1.17,1.9-1.75,1.56-34.53,12.97-94.18,68.35-134.71Z"/>
    <path class="cls-14" d="m270.31,147.05c-55.38,40.53-66.79,100.18-68.35,134.71,50.93-46.35,68.12-93.03,68.35-134.71Z"/>
    <path class="cls-25" d="m134.98,151.12C105.52,127.7,62.6,109.84.15,105.37c0,0-12.63,209.68,197.05,203.85,0,0,1.53-10.82.78-27.48-10.97-9.55-61.9-57.8-63-130.62Z"/>
    <path class="cls-15" d="m134.98,151.12c1.1,72.82,52.03,121.07,63,130.62-1.51-33.39-12.23-90.26-63-130.62Z"/>
    <polyline class="cls-4" points="199.33 314.77 285.65 223.76 201.1 305.12 201.1 159.38 197.7 305.12 112.41 221.09 199.33 314.77"/>
  </g>
  <path class="cls-9" d="m167.2,376.39c2.78-6.47,5.2-12.07,7.6-17.67,2.3-5.39,4.65-10.75,6.85-16.19,1.06-2.63,2.7-3.88,5.61-3.8,4.48.12,8.97.06,13.45-.09,2.2-.07,3,.71,3,2.92-.05,19.77-.06,39.54,0,59.31,0,2.1-.89,2.75-2.79,2.56-.31-.03-.62-.02-.93-.01q-11.88.22-11.93-11.54c-.04-8.64-.08-17.28-.14-25.93,0-.07-.21-.15-.89-.58-1.67,3.74-3.33,7.41-4.94,11.1-2.97,6.78-6.06,13.51-8.79,20.39-1,2.53-2.42,3.35-4.87,2.9-2.59-.47-5.67,1.4-7.34-2.75-4.31-10.66-9.1-21.12-13.72-31.71-1.78.76-1.12,1.99-1.12,2.93-.05,10.5-.14,21.01-.02,31.51.03,2.68-.47,3.74-3.51,3.76-12.14.1-12.15.22-12.15-11.87,0-13.28.03-26.57-.02-39.85-.01-2.88.34-5.93-3.29-7.39-1.81-.72-1.28-2.64-1.1-4.12.2-1.66,1.6-1.65,2.86-1.58,4.47.22,8.92-.14,13.41.38,6.59.77,10.63,4.18,13.1,10.15,3.64,8.8,7.51,17.49,11.69,27.17Z"/>
  <path class="cls-9" d="m349.84,451.78c0-3.7,0-5.94,0-8.17,0-9.42.08-18.84-.04-28.26-.03-2.69.62-3.76,3.55-3.83,12.13-.29,12.13-.39,12.14,11.69,0,16.37-.08,32.74.06,49.11.03,3.27-1.07,3.76-4.12,4.2-10.11,1.46-16.82-1.86-21.56-11.39-4-8.05-9.73-15.23-14.67-22.76-1.95.87-1.21,2.31-1.22,3.38-.09,8.8-.21,17.61-.03,26.4.06,3.08-.53,4.31-3.93,4.3-11.63-.02-11.64.12-11.66-11.64-.02-12.82.02-25.63-.06-38.45-.02-3.5.23-7.17-3.67-9.25-1.68-.9-1.01-2.8-.8-4.23.25-1.71,1.83-1.25,2.98-1.28,1.99-.05,3.98.12,5.96-.02,7.11-.51,12.33,2.5,16.16,8.45,5.58,8.66,11.27,17.24,16.93,25.85,1.05,1.6,2.14,3.16,3.99,5.91Z"/>
  <path class="cls-9" d="m67.66,337.59c8.67-.19,16.3,1.25,23.48,4.91,2.43,1.24,3.36,2.33,1.93,5.3-3.78,7.86-3.57,7.89-11.54,5.24-4.85-1.61-9.86-2.54-14.99-2.43-1.51.03-3.03.43-4.51.82-2.39.62-4.53,1.97-4.58,4.55-.05,2.68,2.29,3.94,4.6,4.54,4.31,1.12,8.67,2.09,13.05,2.97,4.11.83,8.07,2.02,11.82,3.9,7.35,3.67,10.33,9.87,9.98,17.8-.34,7.61-3.87,13.6-10.99,16.27-14.79,5.53-29.31,4.72-43.12-3.55-2.17-1.3-2.63-2.68-1.46-4.9,1.43-2.72,1.99-6.66,4.19-8.01,2.25-1.38,4.81,2.3,7.5,3.33,6.61,2.53,13.31,3.98,20.38,3.06,3.29-.43,6.86-1.32,7.36-5.16.51-3.94-2.66-5.66-5.97-6.5-4.92-1.25-9.98-2-14.86-3.37-8-2.25-15.78-4.85-17.94-14.53-1.81-8.13,1.69-16.48,8.98-20.46,5.42-2.96,11.2-4.32,16.7-3.76Z"/>
  <path class="cls-9" d="m229.48,461.12c0,4.17,0,8.34,0,12.52,0,1.47-.07,3.14-2.07,2.69-3.74-.84-8.62,2.61-11.15-3.36-.81-1.92-2.63.3-3.82.94-10.63,5.73-21.11,5.19-31.2-1.14-6.12-3.83-9.12-9.92-9.58-17.06-.38-6-.27-12.04-.25-18.07.04-14.88,7.05-23.61,21.73-26.28,11.22-2.05,22.16-1.67,31.77,5.97,2.68,2.13,3.01,3.96.76,6.41-.21.22-.38.48-.55.74-3.9,5.67-3.84,5.55-9.76,2.38-5.98-3.2-12.28-4.54-19-2.49-5.7,1.74-8.9,5.35-9.15,11.26-.24,5.7-.23,11.43-.01,17.14.23,5.97,3.85,10.05,9.6,11.43,6.39,1.52,12.73-.5,15.59-4.97,2.53-3.94,2.01-8.98-1.68-11.93-1.76-1.4-1.49-2.97-1.27-4.52.27-1.96,2.09-1.39,3.36-1.42,2.9-.07,5.82-.16,8.71.04,5.59.38,7.86,2.9,7.93,8.61.05,3.71,0,7.42,0,11.12h.02Z"/>
  <path class="cls-10" d="m293.36,476.36c-1.22,0-2.47-.17-3.66.03-3.51.58-5.05-1.08-6.27-4.31-3.01-7.95-1.3-7.01-10.35-7.14-4.28-.06-8.56.14-12.83-.06-3.01-.14-4.74.81-5.87,3.8-2.92,7.74-3.05,7.69-11.15,7.66-8.85-.04-8.91-.06-5.54-8.38,7.16-17.67,14.47-35.29,21.5-53.01,1.14-2.87,2.58-3.53,5.4-3.5,11.41.15,11.48.03,15.86,10.67,6.79,16.5,13.38,33.08,20.26,49.54,1.62,3.89,1.02,5.27-3.21,4.71-1.35-.18-2.75-.03-4.12-.03v.02Zm-25.39-23.22c1.37,0,2.73-.03,4.1,0,2.98.08,3.71-1.2,2.63-3.97-1.66-4.27-3.13-8.62-4.75-12.91-.25-.67-.76-1.58-1.31-1.72-1.13-.29-1.39.89-1.71,1.7-1.29,3.27-2.56,6.55-3.82,9.83q-2.74,7.2,4.86,7.07Z"/>
  <path class="cls-10" d="m213.39,375.33c0-7.57.05-15.14-.02-22.71-.03-3.19.34-6.53-3.46-8.36-1.6-.77-1.07-2.74-.94-4.25.1-1.19.98-1.36,2.02-1.33,12.5.31,25.08-1.11,37.51.7,12.67,1.85,18.77,10.48,18.32,24.63-.33,10.5-8.17,18.32-19.54,20.02-4.66.7-9.25.1-13.87.33-2.72.14-3.86,1.16-3.75,3.95.16,3.86-.17,7.74.09,11.58.2,2.99-.94,3.57-3.69,3.59-12.59.1-12.6.18-12.68-12.4-.03-5.25,0-10.51,0-15.76h.04Zm16.32-13.74q0,11.02,10.97,10.36c6.44-.39,10.44-4.6,10.22-10.76-.22-6.09-4-9.62-10.54-9.82q-10.65-.34-10.65,10.22Z"/>
  <path class="cls-9" d="m115.55,448.67c0-7.57.05-15.13-.02-22.7-.03-3.39,0-6.85-3.64-8.85-1.66-.91-1.2-2.72-.97-4.18.27-1.71,1.78-1.38,2.95-1.39,15.59-.01,31.18.05,46.76-.06,2.71-.02,3.31,1.01,3.31,3.54-.01,8.97.07,8.99-8.92,8.98-6.72,0-13.45.05-20.17-.11-2.72-.07-3.7.72-3.73,3.64-.14,10.72-.25,10.72,10.49,10.74,4.74,0,9.48.13,14.21-.04,2.66-.1,3.37.86,3.31,3.47-.2,10,1.23,8.14-8.2,8.32-5.5.11-11,.08-16.5,0-2.25-.03-3.34.67-3.27,3.18.35,13.1-2.2,10.77,10.26,10.96,6.26.1,12.53.12,18.8-.04,2.74-.07,3.72.71,3.67,3.64-.14,8.56-.01,8.56-8.48,8.56-11.92,0-23.84-.1-35.76.07-3.16.04-4.24-.79-4.14-4.12.24-7.87.08-15.75.08-23.62h-.03Z"/>
  <path class="cls-9" d="m73.57,457.59c6-14.13,11.73-27.05,16.93-40.18,1.76-4.44,3.98-6.13,8.75-5.96,10.15.36,10.12.09,5.99,9.67-7.43,17.23-14.89,34.45-22.12,51.77-1.16,2.78-2.7,3.16-5.38,3.61-9.74,1.64-14.95-1.89-18.31-11.6-4.82-13.92-11.37-27.23-17.18-40.8-1.16-2.7-2.28-5.45-5.17-6.79-1.95-.9-1.27-2.61-1.18-4.03.14-2.09,1.86-1.61,3.15-1.64,1.83-.05,3.67.09,5.5-.03,6.5-.44,10.67,2.5,13.13,8.54,4.12,10.11,8.46,20.12,12.72,30.17.88,2.08,1.8,4.13,3.17,7.28Z"/>
  <path class="cls-9" d="m329.52,391.8c1.56-7.4-1.46-13.45-5.32-19.45-4.5-7-8.58-14.26-12.81-21.43-1.5-2.54-2.96-5.1-5.94-6.2-2.19-.81-1.8-2.63-1.68-4.27.16-2.12,1.9-1.61,3.18-1.65,2.47-.07,4.94-.07,7.41-.02,4.65.1,8.32,1.94,10.76,6.04,3.47,5.82,7.12,11.54,10.47,17.43,1.65,2.9,2.63,3.36,4.47.13,3.81-6.7,8.03-13.17,11.79-19.89,1.57-2.81,3.45-4.06,6.65-3.76,2.29.22,4.63-.04,6.94.04,1.32.05,3.04-.73,3.86.55.86,1.35-.62,2.55-1.28,3.68-5.56,9.43-10.57,19.26-16.96,28.09-5.98,8.26-5.91,17.13-5.76,26.37.11,6.72.68,5.93-5.87,5.94q-9.9.02-9.91-9.74c0-.62,0-1.23,0-1.85Z"/>
  <path class="cls-9" d="m275.22,375.34c0-8.18.02-16.36-.01-24.54,0-2.5-.03-5.02-2.97-6.16-2.16-.83-1.67-2.74-1.49-4.36.23-2.04,1.95-1.59,3.26-1.58,3.24.02,6.5-.07,9.72.25,5.51.55,7.21,2.54,7.23,8.11.05,13.12.16,26.24-.03,39.36-.05,3.71.8,5.19,4.83,5.02,7.71-.32,15.45.05,23.17-.17,2.97-.08,3.59.93,3.61,3.68.07,8.45.19,8.44-8.04,8.44-11.9,0-23.79-.08-35.69.09-2.87.04-3.71-.75-3.65-3.61.18-8.18.06-16.36.06-24.54Z"/>
  <path class="cls-9" d="m120.1,374.18c0,8.49-.09,16.99.05,25.48.05,2.67-.46,4.03-3.51,3.8-3.98-.3-9.12,1.24-11.69-.73-2.78-2.12-.79-7.5-.84-11.44-.16-12.82-.03-25.64-.06-38.45,0-3.34.44-6.86-3.57-8.73-1.52-.71-.84-2.5-.75-3.81.12-1.75,1.58-1.62,2.79-1.61,3.09.02,6.2-.09,9.27.18,6.1.53,8.15,2.69,8.25,8.89.14,8.8.04,17.6.04,26.41h.02Z"/>
  <text class="cls-3" transform="translate(49.77 518.63)"><tspan class="cls-18" x="0" y="0">P</tspan><tspan class="cls-11" x="11.6" y="0">r</tspan><tspan class="cls-1" x="18.89" y="0">o</tspan><tspan class="cls-16" x="30.05" y="0">t</tspan><tspan x="36.23" y="0">ei</tspan><tspan class="cls-21" x="51.98" y="0">n</tspan><tspan class="cls-27" x="63.58" y="0">,</tspan><tspan x="67.92" y="0"> </tspan><tspan class="cls-18" x="72.68" y="0">F</tspan><tspan x="83.25" y="0">i</tspan><tspan class="cls-24" x="88.47" y="0">b</tspan><tspan x="99.93" y="0">e</tspan><tspan class="cls-17" x="110.46" y="0">r</tspan><tspan class="cls-27" x="117" y="0">,</tspan><tspan x="121.34" y="0"> </tspan><tspan class="cls-28" x="126.1" y="0">A</tspan><tspan x="138.49" y="0">n</tspan><tspan class="cls-6" x="149.77" y="0">t</tspan><tspan class="cls-8" x="156.09" y="0">i</tspan><tspan class="cls-26" x="161.31" y="0">o</tspan><tspan class="cls-20" x="172.43" y="0">x</tspan><tspan x="181.48" y="0">i</tspan><tspan class="cls-12" x="186.69" y="0">d</tspan><tspan class="cls-13" x="198.03" y="0">an</tspan><tspan class="cls-22" x="219.92" y="0">t</tspan><tspan class="cls-7" x="226.33" y="0">s an</tspan><tspan class="cls-19" x="262.48" y="0">d</tspan><tspan x="274.21" y="0" xml:space="preserve"> mo</tspan><tspan class="cls-5" x="306.89" y="0">r</tspan><tspan class="cls-7" x="314.18" y="0">e</tspan></text>
</svg>