<?xml version="1.0" encoding="UTF-8"?>
<svg id="Layer_2" data-name="Layer 2" xmlns="http://www.w3.org/2000/svg" viewBox="0 0 2543.58 3666.78">
  <g id="Layer_2-2" data-name="Layer 2">
    <g>
      <g>
        <g>
          <path d="M1778.87,49.47c8.96,32.75-6.5,58.65-9.11,62.86-4.39-2.29-30.88-16.72-39.84-49.47s6.5-58.65,9.11-62.86c4.39,2.29,30.88,16.72,39.84,49.47Z" fill="#f26630"/>
          <path d="M1701.06,112.03c-32.96,8.13-48.05,34.26-50.46,38.59,4.14,2.71,29.65,18.82,62.61,10.68,32.96-8.13,48.05-34.26,50.46-38.59-4.14-2.71-29.65-18.82-62.61-10.68Z" fill="#f26630"/>
        </g>
        <g opacity=".42">
          <path d="M1775.59,130.64c87.85,16.66,170.98,54.02,240.18,110.9,60.09,49.38,109,111.71,143.91,181.14,29.44,58.56,49.99,123.28,54.2,188.94,1.66,25.86,.85,52.19-4.76,77.56-8.15,36.83-22.07,73.33-39.13,106.92-30.1,59.28-74.32,109.93-130.62,145.57-54.91,34.75-117.67,54.61-181.1,66.89-69.13,13.38-139.65,18.19-209.87,21.49-73.9,3.48-147.91,4.97-221.72,10.26-71.44,5.11-143.14,13.59-212.45,32.24s-130.17,45.49-184.84,87.28c-13.53,10.34-26.46,21.4-38.73,33.22-4.64,4.47,2.43,11.54,7.07,7.07,50.35-48.51,111.92-82.97,177.89-105.41s139.46-34.43,210.77-41.09c74.1-6.93,148.53-8.9,222.86-11.87s144.39-6.49,215.8-17.36c65.25-9.94,130.35-26.36,189.25-56.83,58.36-30.19,107.85-74.62,143.43-129.92,20.52-31.9,36.32-66.7,48.44-102.6,9.71-28.77,16.89-57.46,18.16-87.87,2.63-62.93-12.51-126.63-35.84-184.73-28.47-70.88-70.88-136.22-124.64-190.54-60.83-61.46-136.01-107.62-218.39-133.94-22.04-7.04-44.5-12.64-67.23-16.95-6.29-1.19-8.98,8.44-2.66,9.64h.02Z" fill="#add9bf"/>
        </g>
      </g>
      <g opacity=".42">
        <path d="M116.66,3038.27c141.95,97.1,289.48,186.34,443.36,263.3,129.42,64.73,263.4,120.88,401.52,164.24,118.27,37.12,239.66,64.75,362.82,79.32,106.1,12.54,213.54,15.21,319.97,5.11,93.17-8.85,185.53-27.38,274.26-57.33,79.73-26.91,156.5-62.92,227.42-108.29,65.44-41.86,125.93-91.63,178.91-148.48,49.45-53.06,92.44-112.28,126.83-176.17,32.81-60.96,57.9-126.2,73.44-193.69,14.93-64.88,21.13-131.88,17.26-198.37-3.82-65.67-17.34-130.78-40.77-192.28-24.06-63.15-58.23-122.04-100.77-174.53-65.65-81.02-150.91-147.54-245.52-191.24-129.93-60.01-274.96-73.01-415.48-51.2-143.38,22.25-280.6,77.92-405.98,149.85-61.3,35.16-119.88,74.71-176.04,117.59-63.94,48.82-132.7,91.31-205.52,125.57-126.04,59.29-264.86,93.8-404.49,93.23-111.94-.46-227.13-23.23-324.77-79.81-78.07-45.23-145.21-115.13-166.29-205.03-23.39-99.76,16.43-199.64,75.27-279.3,41.33-55.96,92.43-104.24,146.69-147.48,5.03-4.01-2.09-11.04-7.07-7.07-95.15,75.83-188.14,172.75-220.8,293.39-23.14,85.47-7.78,175.09,44.53,246.8,56.92,78.02,145.11,128.05,235.9,156.49,115.33,36.13,239.61,39.67,358.43,20.86,145.38-23.02,284.23-80.79,406.77-161.74,62.12-41.04,119.5-88.52,182.4-128.54,60.6-38.56,123.89-73.03,189.55-102.19,132.43-58.81,277.01-96.93,422.74-92.51,151.39,4.59,295.57,59.63,411.58,157.06,53.89,45.26,100.96,98.55,137.88,158.52,34.92,56.71,60.52,118.87,75.79,183.69,15.14,64.26,20.01,130.71,15.41,196.54-4.7,67.23-19.39,133.64-42.38,196.96-24.03,66.18-57.32,128.91-97.78,186.51-43.05,61.29-94.41,116.64-151.61,164.95-61.44,51.88-129.75,95.45-202.1,130.47-79.68,38.56-164.3,66.55-250.83,84.98-98,20.87-198.41,29.33-298.53,27.81-115.02-1.75-229.6-16.66-341.89-41.29-130.78-28.69-258.52-70.44-382.34-121.19-147.12-60.3-288.84-133.43-425.34-214.83-73.93-44.09-146.33-90.71-217.37-139.31-5.33-3.64-10.33,5.02-5.05,8.63h0Z" fill="#add9bf"/>
      </g>
      <path d="M826.25,2616.56c39.36,38.74,88.42,37.37,96.47,37.01,.23-8.05,.8-57.12-38.57-95.86-39.36-38.74-88.42-37.37-96.47-37.01-.23,8.05-.8,57.12,38.57,95.86Z" fill="#5cb948"/>
      <path d="M1769.91,3629.67c39.36,38.74,88.42,37.37,96.47,37.01,.23-8.05,.8-57.12-38.57-95.86-39.36-38.74-88.42-37.37-96.47-37.01-.23,8.05-.8,57.12,38.57,95.86Z" fill="#5cb948"/>
      <g>
        <path d="M128.27,2963.69c8.96,32.75-6.5,58.65-9.11,62.86-4.39-2.29-30.88-16.72-39.84-49.47-8.96-32.75,6.5-58.65,9.11-62.86,4.39,2.29,30.88,16.72,39.84,49.47Z" fill="#f26630"/>
        <path d="M50.46,3026.25c-32.96,8.13-48.05,34.26-50.46,38.59,4.14,2.71,29.65,18.82,62.61,10.68,32.96-8.13,48.05-34.26,50.46-38.59-4.14-2.71-29.65-18.82-62.61-10.68Z" fill="#f26630"/>
      </g>
    </g>
  </g>
</svg>