<?xml version="1.0" encoding="UTF-8"?>
<svg id="Layer_2" data-name="Layer 2" xmlns="http://www.w3.org/2000/svg" viewBox="0 0 1235.49 1201.54">
  <g id="Layer_1-2" data-name="Layer 1">
    <g>
      <g>
        <path d="M789.72,49.47c8.96,32.75-6.5,58.65-9.11,62.86-4.39-2.29-30.88-16.72-39.84-49.47-8.96-32.75,6.5-58.65,9.11-62.86,4.39,2.29,30.88,16.72,39.84,49.47Z" fill="#f26630"/>
        <path d="M711.9,112.03c-32.96,8.13-48.05,34.26-50.46,38.59,4.14,2.71,29.65,18.82,62.61,10.68,32.96-8.13,48.05-34.26,50.46-38.59-4.14-2.71-29.65-18.82-62.61-10.68Z" fill="#f26630"/>
      </g>
      <g opacity=".42">
        <path d="M786.43,130.64c87.85,16.66,170.98,54.02,240.18,110.9,60.09,49.38,109,111.71,143.91,181.14,29.44,58.56,49.99,123.28,54.2,188.94,1.66,25.86,.85,52.19-4.76,77.56-8.15,36.83-22.07,73.33-39.13,106.92-30.1,59.28-74.32,109.93-130.62,145.57-54.91,34.75-117.67,54.61-181.1,66.89-69.13,13.38-139.65,18.19-209.87,21.49-73.9,3.48-147.91,4.97-221.72,10.26-71.44,5.11-143.14,13.59-212.45,32.24s-130.17,45.49-184.84,87.28c-13.53,10.34-26.46,21.4-38.73,33.22-4.64,4.47,2.43,11.54,7.07,7.07,50.35-48.51,111.92-82.97,177.89-105.41s139.46-34.43,210.77-41.09c74.1-6.93,148.53-8.9,222.86-11.87s144.39-6.49,215.8-17.36c65.25-9.94,130.35-26.36,189.25-56.83,58.36-30.19,107.85-74.62,143.43-129.92,20.52-31.9,36.32-66.7,48.44-102.6,9.71-28.77,16.89-57.46,18.16-87.87,2.63-62.93-12.51-126.63-35.84-184.73-28.47-70.88-70.88-136.22-124.64-190.54-60.83-61.46-136.01-107.62-218.39-133.94-22.04-7.04-44.5-12.64-67.23-16.95-6.29-1.19-8.98,8.44-2.66,9.64h0Z" fill="#add9bf"/>
      </g>
    </g>
  </g>
</svg>