<?xml version="1.0" encoding="UTF-8"?>
<svg id="Layer_2" data-name="Layer 2" xmlns="http://www.w3.org/2000/svg" viewBox="0 0 2902.42 4642.04">
  <g id="Layer_2-2" data-name="Layer 2">
    <g>
      <g>
        <path d="M2154.43,49.47c8.96,32.75-6.5,58.65-9.11,62.86-4.39-2.29-30.88-16.72-39.84-49.47-8.96-32.75,6.5-58.65,9.11-62.86,4.39,2.29,30.88,16.72,39.84,49.47Z" fill="#f26630"/>
        <path d="M2076.62,112.03c-32.96,8.13-48.05,34.26-50.46,38.59,4.14,2.71,29.65,18.82,62.61,10.68,32.96-8.13,48.05-34.26,50.46-38.59-4.14-2.71-29.65-18.82-62.61-10.68Z" fill="#f26630"/>
      </g>
      <g>
        <g>
          <path d="M1238.53,2439.34c32.02,31.51,71.93,30.4,78.47,30.11,.19-6.55,.65-46.47-31.37-77.98-32.02-31.51-71.93-30.4-78.47-30.11-.19,6.55-.65,46.47,31.37,77.98Z" fill="#5cb948"/>
          <path d="M2526.57,3663.26c32.02,31.51,71.93,30.4,78.47,30.11,.19-6.55,.65-46.47-31.37-77.98-32.02-31.51-71.93-30.4-78.47-30.11-.19,6.55-.65,46.47,31.37,77.98Z" fill="#5cb948"/>
          <g opacity=".42">
            <path d="M873.8,4583.33c-175.57,44.78-365.78,41.62-526.51-49.45-134.22-76.05-232.1-203.67-285.93-346.9-52.79-140.44-66.53-297.43-34.14-444.25,30.88-139.98,106.85-271.2,228.67-350.53,150.26-97.84,338.38-99.06,507.8-59.28,125.88,29.56,246.14,80.41,360.25,140.58,72.24,38.09,140.52,82.13,210.55,123.97,72.26,43.17,147.9,80.83,226.56,110.88,252.17,96.32,533.27,103.53,779.14-15.56,215.01-104.14,383.78-291.91,477.97-510.17,91.58-212.21,114.71-457.76,38.56-678.31-38.6-111.79-102.14-213.93-185.02-298.29-116.44-118.52-266.06-190.4-432.9-196.36-177.77-6.36-353.28,50.29-516.49,115.14-97.77,38.84-193.56,82.52-288.73,127.29-69.65,32.77-138.27,68.19-210.46,95.17-163.79,61.2-346.12,84.3-514.68,28.16-138.86-46.25-254.96-143.54-332.61-266.74-77.26-122.57-117.52-267.73-118.22-412.38-.7-145.01,39.33-290.6,122.92-409.93,93.95-134.13,237.23-222.26,394.48-262.81,227.81-58.75,471.64-26.86,695.52,33.56,155.05,41.84,302.38,105.33,462.61,126.98,129.16,17.46,262.9,13.41,388.09-25.13,186.35-57.37,351.06-198.77,392.37-395.4,40.99-195.1-56.13-380.92-212.39-495.1-106.25-77.64-232.73-123.51-360.6-150.57-6.28-1.33-8.96,8.31-2.66,9.64,229.69,48.6,479.75,171.83,555.15,412.19,58.14,185.35-17.25,381.19-165.48,500.67-208.54,168.1-501.4,168.07-748.63,102.49-79.15-21-155.43-50.97-233.74-74.75-68.14-20.69-137.19-38.52-207.02-52.51-117.33-23.51-237.45-36.59-357.2-31.54-176,7.42-353.47,56.51-491.36,169.89-113.35,93.2-190.13,224.07-222.82,366.61-32.01,139.54-23.55,287.97,21.11,423.8,44.28,134.7,125.11,258.35,238.13,345.13,121.75,93.48,273.7,135.24,426.24,127.19,94.91-5.01,188.3-27.65,277.03-61.15,69.23-26.13,135.18-59.91,202.04-91.43,98.97-46.64,198.56-92.22,300.36-132.38,166.35-65.62,346.22-122.85,527.29-111.09,171.05,11.11,320.37,95.04,433.26,221.99,162.66,182.93,224.66,431.39,191.29,671.52-32.99,237.48-152.55,462.74-330.78,623.1-193.03,173.67-449.21,257.19-707.53,230.34-158.29-16.46-310.62-71.21-449.89-146.94-74.55-40.54-144.68-88.57-218.77-129.97-62.65-35.01-126.95-67.15-193.06-95.11-181.47-76.75-391.38-129.66-586.82-76.73-141.45,38.3-256.97,135-323.59,265.01C6.52,3713.85-11.84,3865.71,6.97,4009.5c19.46,148.7,79.4,293.93,179.56,406.53,105.63,118.76,252.31,190.21,410.41,203.68,93.89,8,188.48-3.51,279.52-26.74,6.23-1.59,3.59-11.24-2.66-9.64h0Z" fill="#add9bf"/>
          </g>
        </g>
        <g>
          <path d="M931.14,4636.5c-31.54-12.57-42.91-40.52-44.69-45.13,4.47-2.12,31.95-14.58,63.49-2.01,31.54,12.57,42.91,40.52,44.69,45.13-4.47,2.12-31.95,14.58-63.49,2.01Z" fill="#f26630"/>
          <path d="M928.07,4536.7c13.36-31.21,1.6-58.99-.41-63.52-4.66,1.67-32.88,12.33-46.24,43.54-13.36,31.21-1.6,58.99,.41,63.52,4.66-1.67,32.88-12.33,46.24-43.54Z" fill="#f26630"/>
        </g>
      </g>
    </g>
  </g>
</svg>