<?xml version="1.0" encoding="UTF-8"?>
<svg id="Layer_2" data-name="Layer 2" xmlns="http://www.w3.org/2000/svg" viewBox="0 0 152.15 162">
  <g id="Layer_1-2" data-name="Layer 1">
    <g>
      <g opacity=".8">
        <path d="M17.42,89.28c10.39,3.74,21.2,6.86,32.28,7.55,6.96,.43,14-.42,20.63-2.59,5.51-1.8,10.73-4.37,16.18-6.35,3.06-1.12,6.19-2.06,9.38-2.74,.88-.19,1.77-.36,2.66-.51,.44-.08,.89-.15,1.34-.22,.24-.04,.49-.07,.74-.11,.16-.03-1.37,.17-.37,.05,2.06-.25,4.13-.42,6.2-.5,5.07-.2,10.15,.07,15.19,.64,.7,.08,1.39,.17,2.09,.25,.95,.12-.97-.14-.01,0,.45,.06,.9,.13,1.34,.19,1.58,.23,3.15,.49,4.72,.77,3.48,.62,6.94,1.35,10.39,2.16,1.9,.45,3.8,.92,5.69,1.41,2.53,.65,5.54-.83,6.15-3.49s-.78-5.45-3.49-6.15c-12.42-3.21-25.27-5.76-38.15-5.85-8-.05-16.05,1.01-23.68,3.47-5.6,1.81-10.9,4.38-16.41,6.42-2.75,1.02-5.55,1.88-8.42,2.47-.77,.16-1.54,.29-2.31,.41-.21,.03-.41,.05-.62,.09,.25-.04,1.44-.18,.61-.08-.43,.05-.85,.1-1.28,.14-1.75,.17-3.51,.24-5.27,.23-2.02-.01-4.04-.13-6.05-.34-.52-.05-1.03-.11-1.54-.18-.82-.1-.1-.08,.36,.05-.31-.09-.67-.1-.99-.14-1.17-.18-2.33-.38-3.49-.6-5.57-1.08-11.04-2.63-16.42-4.42-1.61-.54-3.21-1.09-4.8-1.67-2.46-.89-5.58,1-6.15,3.49-.64,2.81,.85,5.2,3.49,6.15h0Z" fill="#add9bf"/>
      </g>
      <path d="M78.38,42.43c-9.66-20.21-1.57-38.33,.1-42.43,4.23,1.27,23.42,6.35,33.08,26.56,9.66,20.21,2.87,41.06,1.2,45.16-4.23-1.27-24.73-9.08-34.39-29.29Z" fill="#add9bf" opacity=".2"/>
      <path d="M11.24,118.09c13.67-17.75,33.49-18.71,37.9-19.07,.78,4.35,4.91,23.77-8.76,41.51-13.67,17.75-35.34,21.11-39.75,21.47-.78-4.35-3.06-26.16,10.61-43.91Z" fill="#add9bf" opacity=".2"/>
    </g>
  </g>
</svg>