<?xml version="1.0" encoding="UTF-8"?>
<svg id="Layer_2" data-name="Layer 2" xmlns="http://www.w3.org/2000/svg" viewBox="0 0 2598.8 2987">
  <g id="Layer_1-2" data-name="Layer 1">
    <g>
      <path d="M236.65,77.32c.36,44.92,29.36,72.36,34.2,76.78,4.76-4.5,33.32-32.4,32.96-77.32-.36-44.92-29.36-72.36-34.2-76.78-4.76,4.5-33.32,32.4-32.96,77.32Z" fill="#5cb948"/>
      <path d="M2012.96,2699.5c-40.13,20.2-51.9,58.35-53.72,64.64,6.14,2.28,43.8,15.54,83.92-4.66,40.13-20.2,51.9-58.35,53.73-64.64-6.14-2.28-43.8-15.54-83.92,4.66Z" fill="#5cb948"/>
      <path d="M2227.51,1283.26c42.63-14.19,59.79-50.23,62.51-56.19-5.75-3.14-41.09-21.71-83.71-7.53-42.63,14.19-59.79,50.23-62.51,56.19,5.75,3.14,41.09,21.71,83.71,7.53Z" fill="#5cb948"/>
      <g opacity=".42">
        <path d="M2297.81,1229.17c71.44-38.08,133.43-92.26,182.34-156.63,47.29-62.24,82.3-134.1,101.69-209.85,18.74-73.23,22.83-150.62,7.85-224.91-14.77-73.26-48.87-141.91-99.76-196.79-59.29-63.93-138.13-106.12-221.23-130.31-115.35-33.58-238.49-35.2-357.21-22.86-78.82,8.19-156.91,22.81-233.87,41.6-99.14,24.21-197.95,48.39-298.44,66.57-175.32,31.71-354.07,51.09-532.43,46.86-128.22-3.04-261.33-16.62-381.39-64.55-76.8-30.66-157.62-82-182.49-165.78-5.18-17.45-7.59-35.48-7.65-53.67-.02-6.43-10.02-6.45-10,0,.28,81.82,50.86,146.65,117.63,189.05,95.28,60.49,212.62,83.58,323.14,95.82,160.28,17.74,323.19,10.05,482.97-9.03,96.78-11.56,192.99-27.75,288.39-47.69,94.11-19.67,186.59-46.29,280.8-65.36,133.28-26.98,272.32-41.29,407.74-22.45,93.24,12.97,185.91,42.8,262.04,99.53,61.55,45.87,109.03,108.95,135.2,181.16,25.43,70.16,31.14,146.48,20.91,220.17-10.61,76.43-37.8,150.36-77.75,216.29-41.41,68.34-96.9,128.39-162.93,173.56-16.29,11.14-33.19,21.35-50.6,30.63-5.68,3.03-.64,11.66,5.05,8.63h0Z" fill="#add9bf"/>
      </g>
      <g opacity=".42">
        <path d="M1956.71,2759.83c-101.74,57.03-208.38,105.37-319.25,141.78-99.71,32.74-202.7,55.95-307.07,67.29-95.49,10.38-192.08,10.95-287.61,.73-90.19-9.65-179.37-29.08-265.31-58.12-82.18-27.77-161.31-64.44-235.52-109.38-71.89-43.54-139.05-94.81-199.78-152.91-59.43-56.86-112.68-120.16-158.12-188.73-44.9-67.77-82.26-140.58-110.51-216.83-28.32-76.41-47.69-156.23-56.97-237.2-9.51-82.99-8.66-167.17,2.52-249.95,11.23-83.18,31.26-168.55,64.89-245.71,24.67-56.61,60.99-107.42,107.64-147.98,46.48-40.42,101.72-69.74,159.5-90.47,64.48-23.13,132.28-36.35,200.22-44.1,76.35-8.71,153.36-10.71,230.14-9.47,83.68,1.35,167.27,6.64,250.66,13.55,87.21,7.23,174.26,16.3,261.29,25.45,87.3,9.18,174.59,18.49,262.04,26.21,84.14,7.43,168.45,13.45,252.9,15.84,77.96,2.21,156.16,1.41,233.88-5.66,34.47-3.14,68.82-7.56,102.9-13.62,6.33-1.12,3.64-10.76-2.66-9.64-74.53,13.25-150.31,18.46-225.93,19.7-82.76,1.36-165.55-2.11-248.1-7.71-87.88-5.96-175.56-14.42-263.17-23.42-88.48-9.09-176.9-18.8-265.43-27.38-86.52-8.39-173.18-15.77-260.02-20.03-80.9-3.96-162.05-5.29-242.95-.89-71.89,3.91-143.91,12.26-213.95,29.34-62.23,15.18-123.34,37.56-178.1,71.14-51.42,31.52-96.24,72.98-130.28,122.86-42.4,62.13-65.68,135.48-83.7,207.86C10.24,1725.09-.32,1810.36,0,1895.61c.32,82.62,10.84,165.22,31.11,245.32,20.03,79.19,49.6,155.95,87.43,228.34,37.86,72.45,84.07,140.47,137.02,202.73,54.14,63.65,115.4,121.08,182.05,171.46,68.42,51.72,142.57,95.79,220.57,131.45,81.02,37.04,166.07,65.11,253.18,83.75,91.87,19.66,185.91,28.95,279.84,28.31,100.5-.68,200.86-12.71,298.94-34.47,108.3-24.03,213.75-60,315.01-105.18,53.4-23.82,105.59-50.27,156.59-78.86,5.61-3.15,.58-11.79-5.05-8.63h0Z" fill="#add9bf"/>
      </g>
    </g>
  </g>
</svg>