<?xml version="1.0" encoding="UTF-8"?>
<svg id="Layer_2" data-name="Layer 2" xmlns="http://www.w3.org/2000/svg" viewBox="0 0 2060.74 1196.28">
  <g id="Layer_1-2" data-name="Layer 1">
    <g>
      <path d="M123.43,1106.2c21.2,42.58,4.63,81.33,1.22,90.08-9.03-2.56-49.94-12.69-71.14-55.27-21.2-42.58-7.49-87.08-4.09-95.83,9.03,2.56,52.8,18.44,74,61.02Z" fill="#add9bf" opacity=".2"/>
      <g>
        <g opacity=".8">
          <path d="M1345.49,15.1c101.93-9.37,205.94-6.79,306.38,13.97s195.96,59.26,270.56,128.31c77.13,71.39,122.72,172.22,127.84,277.02,5.18,106.22-28.49,212.83-88.64,300-59.56,86.32-147.5,154.61-250.28,179.81-140.79,34.51-285.01-19.56-415.66-67.93-65.36-24.2-129.39-50.81-192.67-80.02-63.83-29.46-127.04-60.24-191.09-89.21-124.12-56.14-253.41-107.21-389.84-122.12-121.23-13.25-254.07,3.18-362.37,61.89-53.07,28.77-101.4,70.21-130.35,123.87-34.29,63.54-35.58,136.19-18.98,205.16,8.42,35,20.98,68.8,35.11,101.85,2.52,5.9,11.14,.81,8.63-5.05C24.07,972.4-.41,893.67,13.32,816.61c12.15-68.2,54.59-125.3,110.04-165.27,49.96-36.01,108.45-58.69,168.12-72.67,61.71-14.46,125.71-20.28,189-17.08,141.17,7.14,276.23,57.37,404.19,114.14s248.95,121.26,378.79,169.26c132.7,49.07,275.69,108.02,420.11,85,103.28-16.46,195.37-76.28,261.04-156.48s107.89-182.04,115.11-286.39c7.22-104.47-23.36-210.27-88.9-292.42-62.31-78.11-152.16-128.38-246.55-157.47C1625.79,6.89,1521.17-2.59,1418.49,.58c-24.38,.75-48.72,2.29-73.01,4.52-6.36,.58-6.42,10.59,0,10h0Z" fill="#add9bf"/>
        </g>
        <path d="M746.58,531.72c-29.83,44.16-76.76,49.38-87.17,50.88-2.49-10.22-15.17-55.71,14.66-99.87,29.83-44.16,80.79-55.34,91.2-56.85,2.49,10.22,11.14,61.67-18.69,105.83Z" fill="#5cb948"/>
        <path d="M1797.22,964.07c31.16,36.63,24.33,78.7,23.11,88.11-9.49-.31-52.1-.31-83.27-36.94-31.16-36.63-28.54-83.65-27.32-93.06,9.49,.31,56.31,5.26,87.48,41.89Z" fill="#5cb948"/>
      </g>
    </g>
  </g>
</svg>