<?xml version="1.0" encoding="UTF-8"?>
<svg id="Layer_2" data-name="Layer 2" xmlns="http://www.w3.org/2000/svg" viewBox="0 0 2719.17 1231.41">
  <g id="Layer_1-2" data-name="Layer 1">
    <g>
      <path d="M134.55,1141.52c23.37,41.42,8.83,80.98,5.89,89.89-67.92-9.3-103.78-88.6-82.95-147,9.15,2.08,53.69,15.68,77.06,57.11Z" fill="#add9bf" opacity=".2"/>
      <g>
        <g opacity=".8">
          <path d="M1933.63,21.44c225.11-32.66,492.58-3.5,656.1,171.44,98.47,105.35,145.62,254.86,105.81,395.92-34.64,122.73-124.96,220.52-237.51,277.5-129.62,65.62-275.88,73.13-417.14,48.5-81.68-14.25-162.06-35.92-242.31-56.52-82.45-21.17-164.71-43.03-246.98-64.85-165.36-43.86-330.83-87.54-497.79-124.98-161.01-36.1-323.56-66.2-488.23-79.36-146.04-11.67-314.05-9.9-439.34,76.97-52.44,36.36-91.85,87.14-111.55,148.05-18.91,58.48-19.28,122.61-2.69,181.67,8.88,31.62,22.79,61.46,40.51,89.08,3.46,5.4,12.12,.39,8.63-5.05C-13.01,964.24-8.26,802.44,94.34,704.71c115.82-110.31,296.74-117.29,447.08-107.39,167.56,11.03,333.31,41.56,497,77.93,167.88,37.3,334.23,81.08,500.44,125.15,83.95,22.26,167.89,44.6,252.01,66.23,80.33,20.65,160.79,42.37,242.49,56.96,138.24,24.69,280.27,20.03,409.5-38.93,110.28-50.31,202.63-137.76,248.01-251.26,53.55-133.95,28.82-283.82-54.75-399.7C2495.93,39.31,2238.54-13.69,2012.28,2.84c-27.21,1.99-54.32,5.04-81.31,8.96-6.34,.92-3.65,10.56,2.66,9.64h0Z" fill="#add9bf"/>
        </g>
        <path d="M1241.71,640.03c-29.83,44.16-76.76,49.38-87.17,50.88-24.67-72.75,36.88-148.37,105.86-156.71,2.49,10.22,11.14,61.67-18.69,105.83Z" fill="#5cb948"/>
        <path d="M2384.03,962.58c31.16,36.63,24.33,78.7,23.11,88.11-69.22,3.82-120.05-68.02-110.59-130,9.49,.31,56.31,5.26,87.48,41.89Z" fill="#5cb948"/>
      </g>
    </g>
  </g>
</svg>