<?xml version="1.0" encoding="UTF-8"?>
<svg id="Layer_2" data-name="Layer 2" xmlns="http://www.w3.org/2000/svg" viewBox="0 0 2054.43 1029.11">
  <g id="Layer_1-2" data-name="Layer 1">
    <g>
      <g opacity=".8">
        <path d="M1727.58,9.83c75.55,20.11,146.36,57.26,201.26,113.5,48.76,49.95,82.78,112.69,100.5,180.05,17.7,67.27,19.52,138.48,7.49,206.89-12.26,69.71-38.64,136.88-77.84,195.86-39.92,60.08-93.34,111.02-156.26,146.49-69.65,39.26-148.96,58.05-228.69,58.33-118.61,.41-229.67-41.9-340.37-79.78-143.27-49.04-285.26-102-429.67-147.66-123.15-38.93-249.22-73.11-378.24-84.83-116.33-10.57-234.56-.29-344.23,41.62-27.07,10.34-53.44,22.42-79.04,35.98-5.69,3.01-.64,11.65,5.05,8.63,106.44-56.41,224.57-81.86,344.7-80.17,128.33,1.8,254.88,30.82,377.54,66.61,143.69,41.93,284.25,93.92,425.49,143.24,75.89,26.5,151.86,53.51,228.81,76.81,47.09,14.26,95.62,24.08,144.71,27.86,82.41,6.35,166.05-5.49,241.77-39.28,67.23-30,126.34-76.83,172.04-134.44s76.82-121.93,94.88-191.37c17.81-68.44,21.96-140.49,10.63-210.35-11.17-68.89-38.14-135.36-80.6-190.94-45.91-60.1-108.21-105.06-178.18-133.19-19.27-7.75-39.03-14.18-59.1-19.52-6.23-1.66-8.88,7.99-2.66,9.64h0Z" fill="#add9bf"/>
      </g>
      <path d="M667.64,573.94c-29.83,44.16-76.76,49.38-87.17,50.88-2.49-10.22-15.17-55.71,14.66-99.87,29.83-44.16,80.79-55.34,91.2-56.85,2.49,10.22,11.14,61.67-18.69,105.83Z" fill="#5cb948"/>
      <path d="M1780.79,940.99c31.16,36.63,24.33,78.7,23.11,88.11-9.49-.31-52.1-.31-83.27-36.94-31.16-36.63-28.54-83.65-27.32-93.06,9.49,.31,56.31,5.26,87.48,41.89Z" fill="#5cb948"/>
    </g>
  </g>
</svg>